<?xml version="1.0" encoding="UTF-8"?>
<svg xmlns="http://www.w3.org/2000/svg" width="1400" height="900" viewBox="0 0 1400 900">
<style>
.bg{fill:#fbfbf7}.title{font:700 42px 'Microsoft YaHei','SimHei',Arial,sans-serif;fill:#111827}.sub{font:24px 'Microsoft YaHei','SimHei',Arial,sans-serif;fill:#475467}.label{font:24px 'Microsoft YaHei','SimHei',Arial,sans-serif;fill:#111827}.small{font:20px 'Microsoft YaHei','SimHei',Arial,sans-serif;fill:#344054}.tiny{font:17px 'Microsoft YaHei','SimHei',Arial,sans-serif;fill:#667085}.wire{stroke:#111827;stroke-width:4;stroke-linecap:round;fill:none}.cap{stroke:#111827;stroke-width:4;stroke-linecap:round}.res{fill:#fff7d6;stroke:#111827;stroke-width:4}.op{fill:#eef6ff;stroke:#111827;stroke-width:4}.node{fill:#111827}.panel{fill:#fff;stroke:#d0d5dd;stroke-width:2}.railp{stroke:#e11d48;stroke-width:5}.railg{stroke:#2563eb;stroke-width:5}.hole{fill:#d0d5dd}.chip{fill:#222;stroke:#000;stroke-width:2}.chiptext{font:700 20px Arial,sans-serif;fill:#fff}.wireRed{stroke:#e11d48;stroke-width:5;fill:none;stroke-linecap:round}.wireBlue{stroke:#2563eb;stroke-width:5;fill:none;stroke-linecap:round}.wireYellow{stroke:#d97706;stroke-width:5;fill:none;stroke-linecap:round}.wireGreen{stroke:#16a34a;stroke-width:5;fill:none;stroke-linecap:round}.capbody{fill:#fbbf24;stroke:#92400e;stroke-width:2}.resbody{fill:#f5deb3;stroke:#92400e;stroke-width:2}.stage{fill:#f8fafc;stroke:#cbd5e1;stroke-width:2;stroke-dasharray:8 6}
</style>
<rect class="bg" width="100%" height="100%"/>
<text class="title" x="700" y="62" text-anchor="middle">带通 面包板接线图</text>
<text class="sub" x="700" y="102" text-anchor="middle">清晰示意：红色 +5V，蓝色 GND，黄色 Vin/Vout，绿色级间信号；高通：3.3kΩ/100nF；低通：10kΩ/1nF</text>
<rect class="panel" x="70" y="145" width="1260" height="620" rx="18"/>
<rect x="140" y="205" width="1120" height="430" rx="18" fill="#f8fafc" stroke="#94a3b8" stroke-width="3"/>
<line class="railp" x1="180" y1="245" x2="1220" y2="245"/>
<line class="railg" x1="180" y1="595" x2="1220" y2="595"/>
<text class="label" x="130" y="252" text-anchor="end">+5V</text>
<text class="label" x="130" y="602" text-anchor="end">GND</text>
<circle class="hole" cx="210" cy="310" r="4"/>
<circle class="hole" cx="210" cy="327" r="4"/>
<circle class="hole" cx="210" cy="344" r="4"/>
<circle class="hole" cx="210" cy="361" r="4"/>
<circle class="hole" cx="210" cy="378" r="4"/>
<circle class="hole" cx="248" cy="310" r="4"/>
<circle class="hole" cx="248" cy="327" r="4"/>
<circle class="hole" cx="248" cy="344" r="4"/>
<circle class="hole" cx="248" cy="361" r="4"/>
<circle class="hole" cx="248" cy="378" r="4"/>
<circle class="hole" cx="286" cy="310" r="4"/>
<circle class="hole" cx="286" cy="327" r="4"/>
<circle class="hole" cx="286" cy="344" r="4"/>
<circle class="hole" cx="286" cy="361" r="4"/>
<circle class="hole" cx="286" cy="378" r="4"/>
<circle class="hole" cx="324" cy="310" r="4"/>
<circle class="hole" cx="324" cy="327" r="4"/>
<circle class="hole" cx="324" cy="344" r="4"/>
<circle class="hole" cx="324" cy="361" r="4"/>
<circle class="hole" cx="324" cy="378" r="4"/>
<circle class="hole" cx="362" cy="310" r="4"/>
<circle class="hole" cx="362" cy="327" r="4"/>
<circle class="hole" cx="362" cy="344" r="4"/>
<circle class="hole" cx="362" cy="361" r="4"/>
<circle class="hole" cx="362" cy="378" r="4"/>
<circle class="hole" cx="400" cy="310" r="4"/>
<circle class="hole" cx="400" cy="327" r="4"/>
<circle class="hole" cx="400" cy="344" r="4"/>
<circle class="hole" cx="400" cy="361" r="4"/>
<circle class="hole" cx="400" cy="378" r="4"/>
<circle class="hole" cx="438" cy="310" r="4"/>
<circle class="hole" cx="438" cy="327" r="4"/>
<circle class="hole" cx="438" cy="344" r="4"/>
<circle class="hole" cx="438" cy="361" r="4"/>
<circle class="hole" cx="438" cy="378" r="4"/>
<circle class="hole" cx="476" cy="310" r="4"/>
<circle class="hole" cx="476" cy="327" r="4"/>
<circle class="hole" cx="476" cy="344" r="4"/>
<circle class="hole" cx="476" cy="361" r="4"/>
<circle class="hole" cx="476" cy="378" r="4"/>
<circle class="hole" cx="514" cy="310" r="4"/>
<circle class="hole" cx="514" cy="327" r="4"/>
<circle class="hole" cx="514" cy="344" r="4"/>
<circle class="hole" cx="514" cy="361" r="4"/>
<circle class="hole" cx="514" cy="378" r="4"/>
<circle class="hole" cx="552" cy="310" r="4"/>
<circle class="hole" cx="552" cy="327" r="4"/>
<circle class="hole" cx="552" cy="344" r="4"/>
<circle class="hole" cx="552" cy="361" r="4"/>
<circle class="hole" cx="552" cy="378" r="4"/>
<circle class="hole" cx="590" cy="310" r="4"/>
<circle class="hole" cx="590" cy="327" r="4"/>
<circle class="hole" cx="590" cy="344" r="4"/>
<circle class="hole" cx="590" cy="361" r="4"/>
<circle class="hole" cx="590" cy="378" r="4"/>
<circle class="hole" cx="628" cy="310" r="4"/>
<circle class="hole" cx="628" cy="327" r="4"/>
<circle class="hole" cx="628" cy="344" r="4"/>
<circle class="hole" cx="628" cy="361" r="4"/>
<circle class="hole" cx="628" cy="378" r="4"/>
<circle class="hole" cx="666" cy="310" r="4"/>
<circle class="hole" cx="666" cy="327" r="4"/>
<circle class="hole" cx="666" cy="344" r="4"/>
<circle class="hole" cx="666" cy="361" r="4"/>
<circle class="hole" cx="666" cy="378" r="4"/>
<circle class="hole" cx="704" cy="310" r="4"/>
<circle class="hole" cx="704" cy="327" r="4"/>
<circle class="hole" cx="704" cy="344" r="4"/>
<circle class="hole" cx="704" cy="361" r="4"/>
<circle class="hole" cx="704" cy="378" r="4"/>
<circle class="hole" cx="742" cy="310" r="4"/>
<circle class="hole" cx="742" cy="327" r="4"/>
<circle class="hole" cx="742" cy="344" r="4"/>
<circle class="hole" cx="742" cy="361" r="4"/>
<circle class="hole" cx="742" cy="378" r="4"/>
<circle class="hole" cx="780" cy="310" r="4"/>
<circle class="hole" cx="780" cy="327" r="4"/>
<circle class="hole" cx="780" cy="344" r="4"/>
<circle class="hole" cx="780" cy="361" r="4"/>
<circle class="hole" cx="780" cy="378" r="4"/>
<circle class="hole" cx="818" cy="310" r="4"/>
<circle class="hole" cx="818" cy="327" r="4"/>
<circle class="hole" cx="818" cy="344" r="4"/>
<circle class="hole" cx="818" cy="361" r="4"/>
<circle class="hole" cx="818" cy="378" r="4"/>
<circle class="hole" cx="856" cy="310" r="4"/>
<circle class="hole" cx="856" cy="327" r="4"/>
<circle class="hole" cx="856" cy="344" r="4"/>
<circle class="hole" cx="856" cy="361" r="4"/>
<circle class="hole" cx="856" cy="378" r="4"/>
<circle class="hole" cx="894" cy="310" r="4"/>
<circle class="hole" cx="894" cy="327" r="4"/>
<circle class="hole" cx="894" cy="344" r="4"/>
<circle class="hole" cx="894" cy="361" r="4"/>
<circle class="hole" cx="894" cy="378" r="4"/>
<circle class="hole" cx="932" cy="310" r="4"/>
<circle class="hole" cx="932" cy="327" r="4"/>
<circle class="hole" cx="932" cy="344" r="4"/>
<circle class="hole" cx="932" cy="361" r="4"/>
<circle class="hole" cx="932" cy="378" r="4"/>
<circle class="hole" cx="970" cy="310" r="4"/>
<circle class="hole" cx="970" cy="327" r="4"/>
<circle class="hole" cx="970" cy="344" r="4"/>
<circle class="hole" cx="970" cy="361" r="4"/>
<circle class="hole" cx="970" cy="378" r="4"/>
<circle class="hole" cx="1008" cy="310" r="4"/>
<circle class="hole" cx="1008" cy="327" r="4"/>
<circle class="hole" cx="1008" cy="344" r="4"/>
<circle class="hole" cx="1008" cy="361" r="4"/>
<circle class="hole" cx="1008" cy="378" r="4"/>
<circle class="hole" cx="1046" cy="310" r="4"/>
<circle class="hole" cx="1046" cy="327" r="4"/>
<circle class="hole" cx="1046" cy="344" r="4"/>
<circle class="hole" cx="1046" cy="361" r="4"/>
<circle class="hole" cx="1046" cy="378" r="4"/>
<circle class="hole" cx="1084" cy="310" r="4"/>
<circle class="hole" cx="1084" cy="327" r="4"/>
<circle class="hole" cx="1084" cy="344" r="4"/>
<circle class="hole" cx="1084" cy="361" r="4"/>
<circle class="hole" cx="1084" cy="378" r="4"/>
<circle class="hole" cx="1122" cy="310" r="4"/>
<circle class="hole" cx="1122" cy="327" r="4"/>
<circle class="hole" cx="1122" cy="344" r="4"/>
<circle class="hole" cx="1122" cy="361" r="4"/>
<circle class="hole" cx="1122" cy="378" r="4"/>
<circle class="hole" cx="1160" cy="310" r="4"/>
<circle class="hole" cx="1160" cy="327" r="4"/>
<circle class="hole" cx="1160" cy="344" r="4"/>
<circle class="hole" cx="1160" cy="361" r="4"/>
<circle class="hole" cx="1160" cy="378" r="4"/>
<circle class="hole" cx="210" cy="445" r="4"/>
<circle class="hole" cx="210" cy="462" r="4"/>
<circle class="hole" cx="210" cy="479" r="4"/>
<circle class="hole" cx="210" cy="496" r="4"/>
<circle class="hole" cx="210" cy="513" r="4"/>
<circle class="hole" cx="248" cy="445" r="4"/>
<circle class="hole" cx="248" cy="462" r="4"/>
<circle class="hole" cx="248" cy="479" r="4"/>
<circle class="hole" cx="248" cy="496" r="4"/>
<circle class="hole" cx="248" cy="513" r="4"/>
<circle class="hole" cx="286" cy="445" r="4"/>
<circle class="hole" cx="286" cy="462" r="4"/>
<circle class="hole" cx="286" cy="479" r="4"/>
<circle class="hole" cx="286" cy="496" r="4"/>
<circle class="hole" cx="286" cy="513" r="4"/>
<circle class="hole" cx="324" cy="445" r="4"/>
<circle class="hole" cx="324" cy="462" r="4"/>
<circle class="hole" cx="324" cy="479" r="4"/>
<circle class="hole" cx="324" cy="496" r="4"/>
<circle class="hole" cx="324" cy="513" r="4"/>
<circle class="hole" cx="362" cy="445" r="4"/>
<circle class="hole" cx="362" cy="462" r="4"/>
<circle class="hole" cx="362" cy="479" r="4"/>
<circle class="hole" cx="362" cy="496" r="4"/>
<circle class="hole" cx="362" cy="513" r="4"/>
<circle class="hole" cx="400" cy="445" r="4"/>
<circle class="hole" cx="400" cy="462" r="4"/>
<circle class="hole" cx="400" cy="479" r="4"/>
<circle class="hole" cx="400" cy="496" r="4"/>
<circle class="hole" cx="400" cy="513" r="4"/>
<circle class="hole" cx="438" cy="445" r="4"/>
<circle class="hole" cx="438" cy="462" r="4"/>
<circle class="hole" cx="438" cy="479" r="4"/>
<circle class="hole" cx="438" cy="496" r="4"/>
<circle class="hole" cx="438" cy="513" r="4"/>
<circle class="hole" cx="476" cy="445" r="4"/>
<circle class="hole" cx="476" cy="462" r="4"/>
<circle class="hole" cx="476" cy="479" r="4"/>
<circle class="hole" cx="476" cy="496" r="4"/>
<circle class="hole" cx="476" cy="513" r="4"/>
<circle class="hole" cx="514" cy="445" r="4"/>
<circle class="hole" cx="514" cy="462" r="4"/>
<circle class="hole" cx="514" cy="479" r="4"/>
<circle class="hole" cx="514" cy="496" r="4"/>
<circle class="hole" cx="514" cy="513" r="4"/>
<circle class="hole" cx="552" cy="445" r="4"/>
<circle class="hole" cx="552" cy="462" r="4"/>
<circle class="hole" cx="552" cy="479" r="4"/>
<circle class="hole" cx="552" cy="496" r="4"/>
<circle class="hole" cx="552" cy="513" r="4"/>
<circle class="hole" cx="590" cy="445" r="4"/>
<circle class="hole" cx="590" cy="462" r="4"/>
<circle class="hole" cx="590" cy="479" r="4"/>
<circle class="hole" cx="590" cy="496" r="4"/>
<circle class="hole" cx="590" cy="513" r="4"/>
<circle class="hole" cx="628" cy="445" r="4"/>
<circle class="hole" cx="628" cy="462" r="4"/>
<circle class="hole" cx="628" cy="479" r="4"/>
<circle class="hole" cx="628" cy="496" r="4"/>
<circle class="hole" cx="628" cy="513" r="4"/>
<circle class="hole" cx="666" cy="445" r="4"/>
<circle class="hole" cx="666" cy="462" r="4"/>
<circle class="hole" cx="666" cy="479" r="4"/>
<circle class="hole" cx="666" cy="496" r="4"/>
<circle class="hole" cx="666" cy="513" r="4"/>
<circle class="hole" cx="704" cy="445" r="4"/>
<circle class="hole" cx="704" cy="462" r="4"/>
<circle class="hole" cx="704" cy="479" r="4"/>
<circle class="hole" cx="704" cy="496" r="4"/>
<circle class="hole" cx="704" cy="513" r="4"/>
<circle class="hole" cx="742" cy="445" r="4"/>
<circle class="hole" cx="742" cy="462" r="4"/>
<circle class="hole" cx="742" cy="479" r="4"/>
<circle class="hole" cx="742" cy="496" r="4"/>
<circle class="hole" cx="742" cy="513" r="4"/>
<circle class="hole" cx="780" cy="445" r="4"/>
<circle class="hole" cx="780" cy="462" r="4"/>
<circle class="hole" cx="780" cy="479" r="4"/>
<circle class="hole" cx="780" cy="496" r="4"/>
<circle class="hole" cx="780" cy="513" r="4"/>
<circle class="hole" cx="818" cy="445" r="4"/>
<circle class="hole" cx="818" cy="462" r="4"/>
<circle class="hole" cx="818" cy="479" r="4"/>
<circle class="hole" cx="818" cy="496" r="4"/>
<circle class="hole" cx="818" cy="513" r="4"/>
<circle class="hole" cx="856" cy="445" r="4"/>
<circle class="hole" cx="856" cy="462" r="4"/>
<circle class="hole" cx="856" cy="479" r="4"/>
<circle class="hole" cx="856" cy="496" r="4"/>
<circle class="hole" cx="856" cy="513" r="4"/>
<circle class="hole" cx="894" cy="445" r="4"/>
<circle class="hole" cx="894" cy="462" r="4"/>
<circle class="hole" cx="894" cy="479" r="4"/>
<circle class="hole" cx="894" cy="496" r="4"/>
<circle class="hole" cx="894" cy="513" r="4"/>
<circle class="hole" cx="932" cy="445" r="4"/>
<circle class="hole" cx="932" cy="462" r="4"/>
<circle class="hole" cx="932" cy="479" r="4"/>
<circle class="hole" cx="932" cy="496" r="4"/>
<circle class="hole" cx="932" cy="513" r="4"/>
<circle class="hole" cx="970" cy="445" r="4"/>
<circle class="hole" cx="970" cy="462" r="4"/>
<circle class="hole" cx="970" cy="479" r="4"/>
<circle class="hole" cx="970" cy="496" r="4"/>
<circle class="hole" cx="970" cy="513" r="4"/>
<circle class="hole" cx="1008" cy="445" r="4"/>
<circle class="hole" cx="1008" cy="462" r="4"/>
<circle class="hole" cx="1008" cy="479" r="4"/>
<circle class="hole" cx="1008" cy="496" r="4"/>
<circle class="hole" cx="1008" cy="513" r="4"/>
<circle class="hole" cx="1046" cy="445" r="4"/>
<circle class="hole" cx="1046" cy="462" r="4"/>
<circle class="hole" cx="1046" cy="479" r="4"/>
<circle class="hole" cx="1046" cy="496" r="4"/>
<circle class="hole" cx="1046" cy="513" r="4"/>
<circle class="hole" cx="1084" cy="445" r="4"/>
<circle class="hole" cx="1084" cy="462" r="4"/>
<circle class="hole" cx="1084" cy="479" r="4"/>
<circle class="hole" cx="1084" cy="496" r="4"/>
<circle class="hole" cx="1084" cy="513" r="4"/>
<circle class="hole" cx="1122" cy="445" r="4"/>
<circle class="hole" cx="1122" cy="462" r="4"/>
<circle class="hole" cx="1122" cy="479" r="4"/>
<circle class="hole" cx="1122" cy="496" r="4"/>
<circle class="hole" cx="1122" cy="513" r="4"/>
<circle class="hole" cx="1160" cy="445" r="4"/>
<circle class="hole" cx="1160" cy="462" r="4"/>
<circle class="hole" cx="1160" cy="479" r="4"/>
<circle class="hole" cx="1160" cy="496" r="4"/>
<circle class="hole" cx="1160" cy="513" r="4"/>
<rect class="chip" x="620" y="365" width="130" height="92" rx="8"/>
<text class="chiptext" x="685" y="420" text-anchor="middle">LM358</text>
<rect fill="#d1d5db" x="610" y="377" width="10" height="8"/>
<rect fill="#d1d5db" x="750" y="377" width="10" height="8"/>
<rect fill="#d1d5db" x="610" y="397" width="10" height="8"/>
<rect fill="#d1d5db" x="750" y="397" width="10" height="8"/>
<rect fill="#d1d5db" x="610" y="417" width="10" height="8"/>
<rect fill="#d1d5db" x="750" y="417" width="10" height="8"/>
<rect fill="#d1d5db" x="610" y="437" width="10" height="8"/>
<rect fill="#d1d5db" x="750" y="437" width="10" height="8"/>
<line class="wireRed" x1="640" y1="365" x2="640" y2="245"/>
<line class="wireBlue" x1="640" y1="457" x2="640" y2="595"/>
<text class="small" x="685" y="485" text-anchor="middle">LM358 跨中缝放置</text>
<text class="label" x="170" y="373" text-anchor="end">Vin</text>
<line class="wireYellow" x1="180" y1="365" x2="220" y2="365"/>
<rect class="stage" x="205" y="285" width="260" height="195" rx="10"/>
<text class="tiny" x="335" y="307" text-anchor="middle">高通 fL≈482Hz</text>
<line class="wireGreen" x1="220" y1="365" x2="330" y2="365"/>
<rect class="capbody" x="257" y="343" width="36" height="44" rx="6"/>
<text class="tiny" x="275" y="335" text-anchor="middle">100nF</text>
<line class="wireGreen" x1="335" y1="365" x2="335" y2="555"/>
<rect class="resbody" x="303" y="449" width="64" height="22" rx="11" transform="rotate(90 335 460)"/>
<text class="tiny" x="335" y="436" text-anchor="middle">3.3kΩ</text>
<line class="wireYellow" x1="335" y1="365" x2="465" y2="365"/>
<line class="wireYellow" x1="465" y1="365" x2="560" y2="365"/>
<rect class="stage" x="560" y="285" width="260" height="195" rx="10"/>
<text class="tiny" x="690" y="307" text-anchor="middle">低通 fH≈15.9kHz</text>
<line class="wireGreen" x1="560" y1="365" x2="670" y2="365"/>
<rect class="resbody" x="583" y="354" width="64" height="22" rx="11" transform="rotate(0 615 365)"/>
<text class="tiny" x="615" y="341" text-anchor="middle">10kΩ</text>
<line class="wireGreen" x1="675" y1="365" x2="675" y2="555"/>
<rect class="capbody" x="657" y="438" width="36" height="44" rx="6"/>
<text class="tiny" x="675" y="430" text-anchor="middle">1nF</text>
<line class="wireYellow" x1="675" y1="365" x2="610" y2="365"/>
<line class="wireYellow" x1="750" y1="365" x2="1180" y2="365"/>
<text class="label" x="1210" y="373" text-anchor="start">Vout</text>
<text class="sub" x="700" y="825" text-anchor="middle">注意：这是一张“接线布局示意图”，用于说明元件放置和信号走向；实际面包板孔位可按你的板子微调，但电气连接要与原理图一致。</text>
</svg>