<?xml version="1.0" encoding="UTF-8"?>
<svg xmlns="http://www.w3.org/2000/svg" width="1400" height="900" viewBox="0 0 1400 900">
<style>
.bg{fill:#fbfbf7}.title{font:700 42px 'Microsoft YaHei','SimHei',Arial,sans-serif;fill:#111827}.sub{font:24px 'Microsoft YaHei','SimHei',Arial,sans-serif;fill:#475467}.label{font:24px 'Microsoft YaHei','SimHei',Arial,sans-serif;fill:#111827}.small{font:20px 'Microsoft YaHei','SimHei',Arial,sans-serif;fill:#344054}.tiny{font:17px 'Microsoft YaHei','SimHei',Arial,sans-serif;fill:#667085}.wire{stroke:#111827;stroke-width:4;stroke-linecap:round;fill:none}.cap{stroke:#111827;stroke-width:4;stroke-linecap:round}.res{fill:#fff7d6;stroke:#111827;stroke-width:4}.op{fill:#eef6ff;stroke:#111827;stroke-width:4}.node{fill:#111827}.panel{fill:#fff;stroke:#d0d5dd;stroke-width:2}.railp{stroke:#e11d48;stroke-width:5}.railg{stroke:#2563eb;stroke-width:5}.hole{fill:#d0d5dd}.chip{fill:#222;stroke:#000;stroke-width:2}.chiptext{font:700 20px Arial,sans-serif;fill:#fff}.wireRed{stroke:#e11d48;stroke-width:5;fill:none;stroke-linecap:round}.wireBlue{stroke:#2563eb;stroke-width:5;fill:none;stroke-linecap:round}.wireYellow{stroke:#d97706;stroke-width:5;fill:none;stroke-linecap:round}.wireGreen{stroke:#16a34a;stroke-width:5;fill:none;stroke-linecap:round}.capbody{fill:#fbbf24;stroke:#92400e;stroke-width:2}.resbody{fill:#f5deb3;stroke:#92400e;stroke-width:2}.stage{fill:#f8fafc;stroke:#cbd5e1;stroke-width:2;stroke-dasharray:8 6}
</style>
<rect class="bg" width="100%" height="100%"/>
<text class="title" x="700" y="62" text-anchor="middle">带阻 原理图</text>
<text class="sub" x="700" y="102" text-anchor="middle">适合 STM32 测量：双T陷波：10kΩ/20kΩ/10nF/4.7nF，截止/中心频率 中心约 1.59kHz</text>
<rect class="panel" x="70" y="140" width="1260" height="650" rx="14"/>
<text class="label" x="105" y="335" text-anchor="start">Vin</text>
<text class="label" x="1250" y="335" text-anchor="start">Vout</text>
<line class="wire" x1="140" y1="330" x2="180" y2="330"/>
<text class="label" x="180" y="245" text-anchor="start">双T陷波网络</text>
<circle class="node" cx="180" cy="290" r="5"/>
<line class="wire" x1="140" y1="290" x2="230" y2="290"/>
<line class="wire" x1="230" y1="290" x2="258" y2="290"/>
<line class="wire" x1="352" y1="290" x2="380" y2="290"/>
<rect class="res" x="258" y="276" width="94" height="28" rx="3"/>
<text class="small" x="305" y="264" text-anchor="middle">10kΩ</text>
<circle class="node" cx="380" cy="290" r="5"/>
<line class="wire" x1="380" y1="290" x2="408" y2="290"/>
<line class="wire" x1="502" y1="290" x2="530" y2="290"/>
<rect class="res" x="408" y="276" width="94" height="28" rx="3"/>
<text class="small" x="455" y="264" text-anchor="middle">10kΩ</text>
<line class="wire" x1="530" y1="290" x2="650" y2="290"/>
<line class="wire" x1="380" y1="290" x2="380" y2="318"/>
<line class="cap" x1="353" y1="318" x2="407" y2="318"/>
<line class="cap" x1="353" y1="334" x2="407" y2="334"/>
<line class="wire" x1="380" y1="334" x2="380" y2="362"/>
<line class="wire" x1="380" y1="362" x2="380" y2="380"/>
<line class="wire" x1="354" y1="380" x2="406" y2="380"/>
<line class="wire" x1="362" y1="390" x2="398" y2="390"/>
<line class="wire" x1="371" y1="400" x2="389" y2="400"/>
<text class="small" x="426" y="335" text-anchor="start">4.7nF</text>
<line class="wire" x1="180" y1="290" x2="180" y2="460"/>
<line class="wire" x1="180" y1="460" x2="230" y2="460"/>
<line class="wire" x1="230" y1="460" x2="287" y2="460"/>
<line class="wire" x1="323" y1="460" x2="380" y2="460"/>
<line class="cap" x1="287" y1="428" x2="287" y2="492"/>
<line class="cap" x1="323" y1="428" x2="323" y2="492"/>
<text class="small" x="305" y="418" text-anchor="middle">10nF</text>
<circle class="node" cx="380" cy="460" r="5"/>
<line class="wire" x1="380" y1="460" x2="437" y2="460"/>
<line class="wire" x1="473" y1="460" x2="530" y2="460"/>
<line class="cap" x1="437" y1="428" x2="437" y2="492"/>
<line class="cap" x1="473" y1="428" x2="473" y2="492"/>
<text class="small" x="455" y="418" text-anchor="middle">10nF</text>
<line class="wire" x1="530" y1="460" x2="650" y2="460"/>
<line class="wire" x1="380" y1="460" x2="380" y2="484"/>
<line class="wire" x1="380" y1="546" x2="380" y2="570"/>
<rect class="res" x="366" y="484" width="28" height="62" rx="3"/>
<text class="small" x="426" y="515" text-anchor="start">20kΩ</text>
<line class="wire" x1="380" y1="570" x2="380" y2="588"/>
<line class="wire" x1="354" y1="588" x2="406" y2="588"/>
<line class="wire" x1="362" y1="598" x2="398" y2="598"/>
<line class="wire" x1="371" y1="608" x2="389" y2="608"/>
<line class="wire" x1="650" y1="290" x2="650" y2="460"/>
<line class="wire" x1="650" y1="375" x2="785" y2="375"/>
<polygon class="op" points="832,313 832,437 962,375"/>
<text class="label" x="846" y="353" text-anchor="middle">+</text>
<text class="label" x="846" y="411" text-anchor="middle">−</text>
<text class="small" x="894" y="382" text-anchor="middle">LM358</text>
<line class="wire" x1="962" y1="375" x2="1002" y2="375"/>
<circle class="node" cx="1002" cy="375" r="5"/>
<line class="wire" x1="785" y1="375" x2="832" y2="375"/>
<line class="wire" x1="832" y1="375" x2="832" y2="347"/>
<line class="wire" x1="1002" y1="375" x2="1002" y2="463"/>
<line class="wire" x1="1002" y1="463" x2="832" y2="463"/>
<line class="wire" x1="832" y1="463" x2="832" y2="409"/>
<line class="wire" x1="1002" y1="375" x2="1220" y2="375"/>
<text class="small" x="1040" y="540" text-anchor="middle">LM358 缓冲输出，陷波点约 1.59kHz</text>
<text class="label" x="1250" y="382" text-anchor="start">Vout</text>
<text class="label" x="108" y="297" text-anchor="start">Vin</text>
<text class="sub" x="700" y="835" text-anchor="middle">提示：LM358 8脚接 +5V，4脚接 GND；STM32 ADC 输入建议把交流信号偏置到约 1.65V，避免负半周被削掉。</text>
</svg>